PathFileType  4	(X/Y/Z) C:\Users\antoi\Documents\MyRepositories\mobilecap\ResultsAnalysis
DataRate	CameraRate	NumFrames	NumMarkers	Units	OrigDataRate	OrigDataStartFrame	OrigNumFrames
100.0	100.0	4	51	mm	100.0	1171	1338
Frame#	Time	r_knee			r_shank_antsup			r_ankle			r_calc			r_5meta			r_toe			L_knee			L_shank_antsup			L_ankle			L_calc			L_5meta			L_toe			r_sh2			r_sh3			r_sh4			L_sh2			L_sh3			r_thigh1			r_thigh2			r_thigh3			r_thigh4			r_thigh5			L_thigh1			L_thigh2			L_thigh3			L_thigh4			r.ASIS			r.PSIS			L.ASIS			L.PSIS			C7			R_Shoulder			L_Shoulder			R_Sternum			L_Sternum			R_humerus			R_elbow_med			R_elbow_lat			R_forearm			R_wrist_radius			R_wrist_ulna			L_humerus			L_elbow_med			L_elbow_lat			L_forearm			L_wrist_radius			L_wrist_ulna			R_HJC			L_HJC			R_HJC_reg			L_HJC_reg			
		X1	Y1	Z1	X2	Y2	Z2	X3	Y3	Z3	X4	Y4	Z4	X5	Y5	Z5	X6	Y6	Z6	X7	Y7	Z7	X8	Y8	Z8	X9	Y9	Z9	X10	Y10	Z10	X11	Y11	Z11	X12	Y12	Z12	X13	Y13	Z13	X14	Y14	Z14	X15	Y15	Z15	X16	Y16	Z16	X17	Y17	Z17	X18	Y18	Z18	X19	Y19	Z19	X20	Y20	Z20	X21	Y21	Z21	X22	Y22	Z22	X23	Y23	Z23	X24	Y24	Z24	X25	Y25	Z25	X26	Y26	Z26	X27	Y27	Z27	X28	Y28	Z28	X29	Y29	Z29	X30	Y30	Z30	X31	Y31	Z31	X32	Y32	Z32	X33	Y33	Z33	X34	Y34	Z34	X35	Y35	Z35	X36	Y36	Z36	X37	Y37	Z37	X38	Y38	Z38	X39	Y39	Z39	X40	Y40	Z40	X41	Y41	Z41	X42	Y42	Z42	X43	Y43	Z43	X44	Y44	Z44	X45	Y45	Z45	X46	Y46	Z46	X47	Y47	Z47	X48	Y48	Z48	X49	Y49	Z49	X50	Y50	Z50	X51	Y51	Z51	

1171	11.70000000	-154.37550	470.65224	-371.89888	-114.75337	373.28099	-378.41845	-278.10589	88.57823	-390.94924	-336.89954	54.83435	-443.07590	-164.05665	47.22883	-342.24366	-128.95429	81.51169	-391.92140	-166.41629	487.66621	-792.35057	-116.90896	399.13815	-791.41056	-261.71163	98.10126	-794.69058	-329.17274	51.64321	-738.88815	-163.26332	40.96087	-845.11974	-110.89115	67.80466	-796.56476	-154.61994	266.72606	-382.34609	-176.50523	392.80919	-338.96323	-221.18811	287.71586	-338.57431	-193.82585	434.75881	-822.15454	-231.22220	318.98188	-832.83667	-333.06931	681.27122	-357.12923	-244.20280	621.91489	-369.72719	-251.88242	559.59675	-340.29922	-395.59469	587.68035	-345.13882	-296.00995	527.30874	-356.01017	-305.51769	691.52511	-748.36675	-188.96280	615.94167	-755.75038	-365.79481	612.44338	-793.64117	-255.07911	536.41971	-790.52945	-324.80314	727.79981	-425.67597	-483.94453	857.01980	-500.87988	-326.38824	736.80365	-679.66710	-480.34335	859.17086	-596.32163	-136.35331	1157.70835	-500.26815	-57.39675	1070.02810	-355.95785	-54.76236	1084.82452	-637.09218	-67.50176	1024.10600	-483.81626	-66.58334	1031.29123	-522.31937	18.74092	994.41225	-315.56468	83.62956	784.26322	-321.75585	112.36237	818.55956	-266.04126	153.16114	897.10968	-303.12704	193.84836	998.65064	-426.82095	235.09665	990.80996	-399.35658	21.06910	1004.82831	-693.84001	85.12340	809.34608	-693.39863	105.27123	853.61072	-762.65256	134.06979	916.88196	-730.74214	182.94205	1019.47304	-606.27907	224.09571	1012.73057	-638.99585	-438.11767	692.16572	-452.22863	-436.98511	698.94058	-641.66665	-428.52303	697.80425	-466.07344	-422.19987	701.58093	-633.65443	
1172	11.71000000	-154.17872	470.76341	-371.80746	-114.40180	373.08984	-378.56832	-278.09931	88.72249	-390.81815	-336.88678	54.83609	-443.07510	-164.02470	47.13240	-342.33283	-128.90722	81.37373	-392.00360	-166.27593	487.33963	-792.57387	-116.45724	398.71298	-791.40908	-261.74349	97.98186	-794.76038	-329.22024	51.54987	-738.87974	-163.26689	40.69793	-844.67913	-110.92737	67.92375	-796.47169	-154.35663	266.44306	-382.40647	-176.17480	392.77952	-339.09496	-221.05263	287.67886	-338.57125	-193.39989	434.22203	-822.21489	-230.88503	318.48659	-832.87381	-334.66342	679.43808	-357.45224	-245.19838	620.82642	-370.32422	-252.24028	558.56865	-340.68686	-396.27184	585.36845	-345.00702	-296.15073	525.83120	-355.98539	-306.88159	689.74817	-748.50260	-189.61869	615.01059	-755.51521	-366.52224	610.52599	-794.36900	-255.15923	535.26398	-790.72192	-325.99534	723.87247	-425.98695	-484.71502	853.43548	-501.31495	-327.78437	732.88663	-680.09650	-481.17130	855.55324	-596.50136	-135.02943	1151.65459	-500.63391	-56.21287	1063.64013	-356.60408	-53.73614	1078.41740	-637.32281	-66.89573	1017.86458	-484.34492	-65.91250	1024.95166	-522.77884	19.53731	987.71847	-316.13046	83.40749	776.79481	-321.47333	112.63470	811.63067	-266.13370	152.99139	890.22030	-303.66722	192.06448	991.54060	-427.88802	233.56984	984.33845	-400.58490	21.63529	998.32503	-694.44847	84.44225	802.41422	-694.80735	105.17888	847.29722	-764.27107	133.70985	910.35782	-731.71086	181.36489	1012.06149	-605.98041	222.60364	1005.94312	-638.91241	-439.37907	688.51239	-452.52940	-438.36495	695.25971	-641.96911	-429.85154	694.12321	-466.34031	-423.60967	697.85354	-634.00457	
1173	11.72000000	-153.92538	471.11055	-371.71773	-114.08095	373.03725	-378.56725	-278.08152	89.07799	-390.42406	-336.78782	54.96554	-442.97195	-163.90188	46.90582	-342.48886	-128.78510	81.07129	-392.04550	-166.12145	487.02691	-792.77355	-116.06389	398.33467	-791.46355	-261.75287	97.90100	-794.78542	-329.23709	51.49673	-738.91913	-163.26857	40.56685	-844.41198	-110.92537	68.06275	-796.46366	-154.01669	266.35343	-382.48497	-175.83749	392.66889	-339.14847	-220.90733	287.69876	-338.51362	-192.92276	433.86713	-822.43033	-230.55788	318.22328	-832.94860	-336.22881	677.77569	-357.67524	-246.20833	619.77331	-370.89928	-252.57274	557.59527	-340.98975	-396.86858	583.05779	-345.05978	-296.31059	524.36632	-356.11637	-308.48341	688.26884	-748.68472	-190.49916	614.33850	-755.24998	-367.18253	608.64620	-794.94702	-255.17821	534.32230	-791.16901	-327.15049	719.96791	-426.46465	-485.41447	849.91578	-501.83841	-329.04723	729.05898	-680.55578	-482.00428	852.08543	-596.64650	-133.87014	1145.77159	-500.79764	-55.09987	1057.23603	-357.14731	-52.73920	1072.06439	-637.51453	-66.23678	1012.13142	-485.07863	-65.25570	1018.78148	-523.20555	20.38804	981.00669	-316.60063	83.35770	769.38222	-321.24385	112.86468	804.83039	-266.21392	152.75661	883.43565	-304.26016	190.48442	984.56911	-428.93543	232.17848	977.90920	-401.47255	22.24120	991.88223	-695.07434	83.50635	795.77644	-696.43000	105.23488	841.16326	-766.39089	133.39919	903.82757	-732.60425	179.94116	1004.69266	-605.81227	221.28957	999.11892	-638.97845	-440.59684	684.89749	-452.94359	-439.68055	691.70522	-642.38152	-431.02065	690.47614	-466.70215	-424.99023	694.31335	-634.36182	
1174	11.73000000	-153.65756	470.94430	-371.71781	-113.81168	373.05015	-378.45602	-278.01854	89.34112	-390.12354	-336.65274	55.11508	-442.94569	-163.80173	46.70875	-342.53893	-128.62561	80.72703	-392.03795	-165.97051	486.72666	-792.99481	-115.77777	397.97727	-791.57934	-261.75347	97.85238	-794.80099	-329.23686	51.41524	-738.90104	-163.26881	40.56897	-844.36277	-110.89850	68.16129	-796.48514	-153.67210	266.40678	-382.59184	-175.52410	392.55727	-339.15326	-220.71308	287.68781	-338.49270	-192.48635	433.67453	-822.76047	-230.22653	318.09724	-833.14782	-337.58900	676.13999	-358.21373	-247.33805	618.77441	-371.35066	-252.95859	556.67775	-341.15904	-397.47414	580.83870	-345.22662	-296.42460	522.92689	-356.32274	-310.44087	687.04260	-748.69037	-191.58903	614.16324	-755.42233	-367.87683	606.84576	-795.36952	-255.28323	533.53291	-791.77464	-328.31459	716.05589	-427.02704	-486.12969	846.52109	-502.28559	-330.26890	725.42372	-681.23244	-482.76478	848.82551	-596.97738	-132.95108	1140.24733	-500.42379	-54.06441	1050.69570	-357.40429	-51.84924	1065.83026	-637.68344	-65.66313	1006.01204	-485.57406	-64.74465	1012.68971	-523.53734	21.26749	974.33429	-316.93683	83.54560	761.94853	-320.97616	113.05106	798.15311	-266.20302	152.47048	876.81887	-304.79629	189.07172	977.68088	-430.02970	230.91125	971.54470	-402.05340	22.77749	985.59078	-695.64398	82.86471	789.30117	-698.57231	105.34021	835.11184	-768.51674	133.07524	897.40297	-733.38092	178.65865	997.41635	-605.87758	220.12366	992.31201	-638.91515	-441.84625	681.34290	-453.55273	-440.98982	688.36873	-642.98295	-432.28349	686.83436	-467.28285	-426.32299	690.91614	-635.02161	
